<?xml version="1.0" ?><svg enable-background="new 0 0 64 64" id="Filled_Outline_00000087397764462717629230000011401247782193659528_" version="1.1" viewBox="0 0 64 64" xml:space="preserve" xmlns="http://www.w3.org/2000/svg" xmlns:xlink="http://www.w3.org/1999/xlink"><g><g><path d="M41,17h-0.1c-2.705-1.27-5.714-2-8.9-2s-6.195,0.73-8.9,2H23C10.85,17,1,26.85,1,39v0    c0,12.15,9.85,22,22,22h0.1c2.705,1.27,5.714,2,8.9,2s6.195-0.73,8.9-2H41c12.15,0,22-9.85,22-22v0C63,26.85,53.15,17,41,17z" fill="#FF6D1F"/><path d="M21,4L21,4c0,1.657,1.343,3,3,3h0c2.761,0,5,2.239,5,5v3h6v-3c0-6.075-4.925-11-11-11h0    C22.343,1,21,2.343,21,4z" fill="#A69D24"/><path d="M44,53c0,0-6-4-12-4c-6,0-12,4-12,4s3-10,12-10C41,43,44,53,44,53z M27,30c0-2.761-1.343-5-3-5    s-3,2.239-3,5s1.343,5,3,5S27,32.761,27,30z M43,30c0-2.761-1.343-5-3-5s-3,2.239-3,5s1.343,5,3,5S43,32.761,43,30z" fill="#732002"/></g><g><path d="M32,42c-9.633,0-12.926,10.605-12.958,10.713c-0.121,0.404,0.024,0.84,0.363,1.091    C19.582,53.935,19.791,54,20,54c0.193,0,0.386-0.056,0.555-0.168C20.612,53.794,26.368,50,32,50    c5.617,0,11.388,3.794,11.446,3.833c0.351,0.233,0.811,0.222,1.149-0.029c0.338-0.251,0.484-0.687,0.363-1.09    C44.926,52.605,41.633,42,32,42z M32,48c-3.79,0-7.519,1.479-9.917,2.676C23.555,47.925,26.601,44,32,44s8.445,3.925,9.917,6.676    C39.519,49.479,35.79,48,32,48z" fill="#260A04"/><path d="M24,36c2.243,0,4-2.636,4-6s-1.757-6-4-6s-4,2.636-4,6S21.757,36,24,36z M24,26c0.944,0,2,1.71,2,4    s-1.056,4-2,4s-2-1.71-2-4S23.056,26,24,26z" fill="#260A04"/><path d="M40,36c2.243,0,4-2.636,4-6s-1.757-6-4-6s-4,2.636-4,6S37.757,36,40,36z M40,26c0.944,0,2,1.71,2,4    s-1.056,4-2,4s-2-1.71-2-4S39.056,26,40,26z" fill="#260A04"/><path d="M64,39c0-12.63-10.233-22.911-22.843-22.996c-1.623-0.746-3.351-1.3-5.157-1.633V12    c0-6.617-5.383-12-12-12c-2.206,0-4,1.794-4,4s1.794,4,4,4s4,1.794,4,4v2.371c-1.805,0.333-3.534,0.887-5.157,1.633    C10.233,16.089,0,26.37,0,39s10.233,22.911,22.843,22.996C25.633,63.279,28.733,64,32,64s6.367-0.721,9.157-2.004    C53.767,61.911,64,51.63,64,39z M24,6c-1.103,0-2-0.897-2-2s0.897-2,2-2c5.514,0,10,4.486,10,10v2.095    C33.341,14.035,32.675,14,32,14s-1.341,0.035-2,0.095V12C30,8.691,27.309,6,24,6z M45.218,59.574C50.547,55.555,54,49.174,54,42    h-2c0,11.028-8.972,20-20,20s-20-8.972-20-20h-2c0,7.174,3.453,13.555,8.782,17.574C9.217,57.616,2,49.135,2,39    s7.217-18.616,16.782-20.574C13.453,22.445,10,28.826,10,36h2c0-11.028,8.972-20,20-20s20,8.972,20,20h2    c0-7.174-3.453-13.555-8.782-17.574C54.783,20.384,62,28.865,62,39S54.783,57.616,45.218,59.574z" fill="#260A04"/></g></g></svg>