<?xml version="1.0" ?><svg enable-background="new 0 0 64 64" id="Filled_Outline_00000067219907487444458210000009573402626722376610_" version="1.1" viewBox="0 0 64 64" xml:space="preserve" xmlns="http://www.w3.org/2000/svg" xmlns:xlink="http://www.w3.org/1999/xlink"><g><g><path d="M41,17h-0.1c-2.705-1.27-5.714-2-8.9-2s-6.195,0.73-8.9,2H23C10.85,17,1,26.85,1,39v0    c0,12.15,9.85,22,22,22h0.1c2.705,1.27,5.714,2,8.9,2s6.195-0.73,8.9-2H41c12.15,0,22-9.85,22-22v0C63,26.85,53.15,17,41,17z" fill="#FF6D1F"/><path d="M21,4L21,4c0,1.657,1.343,3,3,3h0c2.761,0,5,2.239,5,5v3h6v-3c0-6.075-4.925-11-11-11h0    C22.343,1,21,2.343,21,4z" fill="#A69D24"/><path d="M35,29c0,0,2,2,6,2s6-2,6-2s-1,6-6,6S35,29,35,29z M23,35c5,0,6-6,6-6s-2,2-6,2s-6-2-6-2S18,35,23,35z     M32,43c-7,0-11,8-11,8s5-2,11-2c6,0,11,2,11,2S39,43,32,43z" fill="#732002"/><path d="M43,39c0-2-2-4-2-4s-2,2-2,4c0,1.105,0.895,2,2,2S43,40.105,43,39z" fill="#66EAFF"/></g><g><path d="M47.462,28.117c-0.383-0.201-0.854-0.131-1.163,0.17C46.227,28.357,44.491,30,41,30    s-5.227-1.643-5.293-1.707c-0.309-0.309-0.779-0.382-1.165-0.182c-0.386,0.199-0.6,0.625-0.528,1.054    c0.336,2.019,1.827,5.566,5.134,6.561C38.572,36.595,38,37.762,38,39c0,1.654,1.346,3,3,3s3-1.346,3-3    c0-1.238-0.572-2.405-1.148-3.274c3.307-0.995,4.798-4.542,5.134-6.561C48.058,28.738,47.844,28.318,47.462,28.117z M41,40    c-0.552,0-1-0.449-1-1c0-0.83,0.51-1.756,1-2.439c0.49,0.683,1,1.609,1,2.439C42,39.551,41.552,40,41,40z M41,34    c-2.178,0-3.448-1.411-4.166-2.759C37.894,31.66,39.283,32,41,32s3.106-0.34,4.166-0.759C44.448,32.589,43.177,34,41,34z" fill="#260A04"/><path d="M29.986,29.165c0.071-0.426-0.143-0.847-0.524-1.047c-0.383-0.201-0.854-0.131-1.163,0.17    C28.227,28.357,26.491,30,23,30s-5.227-1.643-5.293-1.707c-0.309-0.309-0.779-0.382-1.165-0.182    c-0.386,0.199-0.6,0.625-0.528,1.054C16.407,31.529,18.375,36,23,36S29.593,31.529,29.986,29.165z M18.834,31.241    C19.894,31.66,21.283,32,23,32s3.106-0.34,4.166-0.759C26.448,32.589,25.177,34,23,34C20.822,34,19.552,32.589,18.834,31.241z" fill="#260A04"/><path d="M32,42c-7.531,0-11.72,8.204-11.895,8.553c-0.186,0.372-0.122,0.819,0.158,1.125    C20.457,51.887,20.726,52,21,52c0.125,0,0.251-0.023,0.371-0.071C21.42,51.909,26.259,50,32,50c5.723,0,10.581,1.91,10.629,1.929    c0.386,0.153,0.826,0.053,1.107-0.252c0.28-0.305,0.344-0.752,0.158-1.124C43.72,50.204,39.531,42,32,42z M32,48    c-3.459,0-6.572,0.634-8.664,1.201C24.98,47.009,27.97,44,32,44c4.015,0,7.008,3.006,8.656,5.199C38.564,48.633,35.455,48,32,48z" fill="#260A04"/><path d="M64,39c0-12.63-10.233-22.911-22.843-22.996c-1.623-0.746-3.351-1.3-5.157-1.633V12    c0-6.617-5.383-12-12-12c-2.206,0-4,1.794-4,4s1.794,4,4,4s4,1.794,4,4v2.371c-1.805,0.333-3.534,0.887-5.157,1.633    C10.233,16.089,0,26.37,0,39s10.233,22.911,22.843,22.996C25.633,63.279,28.733,64,32,64s6.367-0.721,9.157-2.004    C53.767,61.911,64,51.63,64,39z M24,6c-1.103,0-2-0.897-2-2s0.897-2,2-2c5.514,0,10,4.486,10,10v2.095    C33.341,14.035,32.675,14,32,14s-1.341,0.035-2,0.095V12C30,8.691,27.309,6,24,6z M45.218,59.574C50.547,55.555,54,49.174,54,42    h-2c0,11.028-8.972,20-20,20s-20-8.972-20-20h-2c0,7.174,3.453,13.555,8.782,17.574C9.218,57.616,2,49.135,2,39    s7.218-18.616,16.782-20.574C13.453,22.445,10,28.826,10,36h2c0-11.028,8.972-20,20-20s20,8.972,20,20h2    c0-7.174-3.453-13.555-8.782-17.574C54.782,20.384,62,28.865,62,39S54.782,57.616,45.218,59.574z" fill="#260A04"/></g></g></svg>