<?xml version="1.0" ?><svg enable-background="new 0 0 64 64" id="Filled_Outline_00000081607312705973271110000009714898175699931553_" version="1.1" viewBox="0 0 64 64" xml:space="preserve" xmlns="http://www.w3.org/2000/svg" xmlns:xlink="http://www.w3.org/1999/xlink"><g><g><path d="M41,17h-0.1c-2.705-1.27-5.714-2-8.9-2s-6.195,0.73-8.9,2H23C10.85,17,1,26.85,1,39v0    c0,12.15,9.85,22,22,22h0.1c2.705,1.27,5.714,2,8.9,2s6.195-0.73,8.9-2H41c12.15,0,22-9.85,22-22v0C63,26.85,53.15,17,41,17z" fill="#FF6D1F"/><path d="M21,4L21,4c0,1.657,1.343,3,3,3h0c2.761,0,5,2.239,5,5v3h6v-3c0-6.075-4.925-11-11-11h0    C22.343,1,21,2.343,21,4z" fill="#A69D24"/><path d="M35,29c0,0,2,2,6,2s6-2,6-2s-1,6-6,6S35,29,35,29z M23,35c5,0,6-6,6-6s-2,2-6,2s-6-2-6-2S18,35,23,35z" fill="#732002"/><path d="M43,39c0-2-2-4-2-4s-2,2-2,4c0,1.105,0.895,2,2,2S43,40.105,43,39z" fill="#66EAFF"/></g><g><path d="M47.462,28.117c-0.383-0.2-0.854-0.13-1.164,0.17C46.226,28.357,44.491,30,41,30s-5.226-1.643-5.293-1.707    c-0.307-0.307-0.776-0.38-1.165-0.183c-0.387,0.199-0.6,0.625-0.529,1.054c0.336,2.019,1.827,5.566,5.134,6.561    C38.572,36.595,38,37.762,38,39c0,1.654,1.346,3,3,3s3-1.346,3-3c0-1.238-0.572-2.405-1.147-3.275    c3.307-0.995,4.797-4.542,5.134-6.561C48.058,28.738,47.844,28.317,47.462,28.117z M41,40c-0.551,0-1-0.448-1-1    c0-0.829,0.51-1.756,1-2.439c0.49,0.684,1,1.61,1,2.439C42,39.552,41.551,40,41,40z M41,34c-2.177,0-3.449-1.411-4.166-2.759    C37.894,31.66,39.283,32,41,32s3.106-0.34,4.166-0.759C44.448,32.589,43.177,34,41,34z" fill="#260A04"/><path d="M29.462,28.117c-0.383-0.2-0.854-0.13-1.164,0.17C28.226,28.357,26.491,30,23,30s-5.226-1.643-5.293-1.707    c-0.306-0.307-0.777-0.38-1.165-0.183c-0.387,0.199-0.6,0.625-0.529,1.054C16.408,31.528,18.375,36,23,36s6.592-4.472,6.986-6.836    C30.058,28.738,29.844,28.317,29.462,28.117z M23,34c-2.177,0-3.449-1.411-4.166-2.759C19.894,31.66,21.283,32,23,32    s3.106-0.34,4.166-0.759C26.448,32.589,25.177,34,23,34z" fill="#260A04"/><path d="M64,39c0-12.63-10.233-22.911-22.843-22.996c-1.623-0.746-3.351-1.3-5.157-1.633V12    c0-6.617-5.383-12-12-12c-2.206,0-4,1.794-4,4s1.794,4,4,4s4,1.794,4,4v2.371c-1.805,0.333-3.534,0.887-5.157,1.633    C10.233,16.089,0,26.37,0,39c0,12.63,10.233,22.911,22.843,22.996C25.633,63.279,28.733,64,32,64s6.367-0.721,9.157-2.004    C53.767,61.911,64,51.63,64,39z M24,6c-1.103,0-2-0.897-2-2s0.897-2,2-2c5.514,0,10,4.486,10,10v2.095    C33.341,14.035,32.675,14,32,14s-1.341,0.035-2,0.095V12C30,8.691,27.309,6,24,6z M45.218,59.574C50.547,55.555,54,49.174,54,42    h-2c0,11.028-8.972,20-20,20s-20-8.972-20-20h-2c0,7.174,3.453,13.555,8.782,17.574C9.217,57.616,2,49.135,2,39    s7.217-18.616,16.782-20.574C13.453,22.445,10,28.826,10,36h2c0-11.028,8.972-20,20-20s20,8.972,20,20h2    c0-7.174-3.453-13.555-8.782-17.574C54.783,20.384,62,28.865,62,39S54.783,57.616,45.218,59.574z" fill="#260A04"/></g></g></svg>