<?xml version="1.0" ?><svg enable-background="new 0 0 64 64" id="Filled_Outline_00000081607312705973271110000009714898175699931553_" version="1.1" viewBox="0 0 64 64" xml:space="preserve" xmlns="http://www.w3.org/2000/svg" xmlns:xlink="http://www.w3.org/1999/xlink"><g><g><path d="M41,17h-0.1c-2.705-1.27-5.714-2-8.9-2s-6.195,0.73-8.9,2H23C10.85,17,1,26.85,1,39v0    c0,12.15,9.85,22,22,22h0.1c2.705,1.27,5.714,2,8.9,2s6.195-0.73,8.9-2H41c12.15,0,22-9.85,22-22v0C63,26.85,53.15,17,41,17z" fill="#FF6D1F"/><path d="M21,4L21,4c0,1.657,1.343,3,3,3h0c2.761,0,5,2.239,5,5v3h6v-3c0-6.075-4.925-11-11-11h0    C22.343,1,21,2.343,21,4z" fill="#A69D24"/><path d="M45,32l2,2l-3,3l-2-2l-2,2l-3-3l2-2l-2-2l3-3l2,2l2-2l3,3L45,32z M27,32c0-2.761-2.239-5-5-5s-5,2.239-5,5    s2.239,5,5,5S27,34.761,27,32z M29,43v4h-6v-4h0c-3.314,0-6,2.686-6,6v0c0,3.314,2.686,6,6,6h12v-4h6v4h0c3.314,0,6-2.686,6-6v0    c0-3.314-2.686-6-6-6H29z" fill="#732002"/></g><g><path d="M47.707,29.293l-3-3c-0.391-0.391-1.023-0.391-1.414,0L42,27.586l-1.293-1.293    c-0.391-0.391-1.023-0.391-1.414,0l-3,3c-0.391,0.391-0.391,1.023,0,1.414L37.586,32l-1.293,1.293    c-0.391,0.391-0.391,1.023,0,1.414l3,3c0.391,0.391,1.023,0.391,1.414,0L42,36.414l1.293,1.293C43.488,37.902,43.744,38,44,38    s0.512-0.098,0.707-0.293l3-3c0.391-0.391,0.391-1.023,0-1.414L46.414,32l1.293-1.293C48.098,30.316,48.098,29.684,47.707,29.293z     M44.293,32.707L45.586,34L44,35.586l-1.293-1.293C42.512,34.098,42.256,34,42,34s-0.512,0.098-0.707,0.293L40,35.586L38.414,34    l1.293-1.293c0.391-0.391,0.391-1.023,0-1.414L38.414,30L40,28.414l1.293,1.293c0.391,0.391,1.023,0.391,1.414,0L44,28.414    L45.586,30l-1.293,1.293C43.902,31.684,43.902,32.316,44.293,32.707z" fill="#260A04"/><path d="M22,38c3.309,0,6-2.691,6-6s-2.691-6-6-6s-6,2.691-6,6S18.691,38,22,38z M22,28c2.206,0,4,1.794,4,4    s-1.794,4-4,4s-4-1.794-4-4S19.794,28,22,28z" fill="#260A04"/><path d="M41,42H29c-0.553,0-1,0.448-1,1v3h-4v-3c0-0.552-0.447-1-1-1c-3.859,0-7,3.14-7,7s3.141,7,7,7h12    c0.553,0,1-0.448,1-1v-3h4v3c0,0.552,0.447,1,1,1c3.859,0,7-3.14,7-7S44.859,42,41,42z M42,53.899V51c0-0.552-0.447-1-1-1h-6    c-0.553,0-1,0.448-1,1v3H23c-2.757,0-5-2.243-5-5c0-2.415,1.721-4.435,4-4.899V47c0,0.552,0.447,1,1,1h6c0.553,0,1-0.448,1-1v-3    h11c2.757,0,5,2.243,5,5C46,51.415,44.279,53.435,42,53.899z" fill="#260A04"/><path d="M64,39c0-12.63-10.233-22.911-22.843-22.996c-1.623-0.746-3.351-1.3-5.157-1.633V12    c0-6.617-5.383-12-12-12c-2.206,0-4,1.794-4,4s1.794,4,4,4s4,1.794,4,4v2.371c-1.805,0.333-3.534,0.887-5.157,1.633    C10.233,16.089,0,26.37,0,39s10.233,22.911,22.843,22.996C25.633,63.279,28.733,64,32,64s6.367-0.721,9.157-2.004    C53.767,61.911,64,51.63,64,39z M24,6c-1.103,0-2-0.897-2-2s0.897-2,2-2c5.514,0,10,4.486,10,10v2.095    C33.341,14.035,32.675,14,32,14s-1.341,0.035-2,0.095V12C30,8.691,27.309,6,24,6z M45.218,59.574C50.547,55.555,54,49.174,54,42    h-2c0,11.028-8.972,20-20,20s-20-8.972-20-20h-2c0,7.174,3.453,13.555,8.782,17.574C9.218,57.616,2,49.135,2,39    s7.218-18.616,16.782-20.574C13.453,22.445,10,28.826,10,36h2c0-11.028,8.972-20,20-20s20,8.972,20,20h2    c0-7.174-3.453-13.555-8.782-17.574C54.782,20.384,62,28.865,62,39S54.782,57.616,45.218,59.574z" fill="#260A04"/></g></g></svg>